0
SECTION
2
HEADER
9
$INSUNITS
70
4
0
ENDSEC
0
SECTION
2
TABLES
0
TABLE
2
LTYPE
0
LTYPE
72
65
70
64
2
CONTINUOUS
3
______
73
0
40
0
0
ENDTAB
0
TABLE
2
LAYER
0
ENDTAB
0
ENDSEC
0
SECTION
2
ENTITIES
0
LINE
8
0
10
54.5139686
20
-133.0506566
11
69.7734398
21
-137.8619494
0
LINE
8
0
10
72.9094967
20
-136.2294215
11
74.2626728
21
-131.9376953
0
LINE
8
0
10
52.8814407
20
-129.9145997
11
69.1195539
21
-78.4138844
0
LINE
8
0
10
85.6076481
20
-80.9912377
11
72.2556108
21
-76.7813565
0
LINE
8
0
10
77.3987297
20
-130.3051674
11
90.750767
21
-134.5150486
0
LINE
8
0
10
93.8868239
20
-132.8825207
11
95.24
21
-128.5907945
0
LINE
8
0
10
106.5849752
20
-77.6443369
11
93.232938
21
-73.4344557
0
LINE
8
0
10
90.0968811
20
-75.0669836
11
88.743705
21
-79.3587098
0
LINE
8
0
10
98.3760569
20
-126.9582665
11
109.8206602
21
-130.5667361
0
LINE
8
0
10
129.7490881
20
-82.3266307
11
131.1022642
21
-78.0349045
0
LINE
8
0
10
129.4697363
20
-74.8988476
11
114.2102651
21
-70.0875548
0
LINE
8
0
10
111.0742082
20
-71.7200827
11
109.7210321
21
-76.0118089
0
LINE
8
0
10
104.3866018
20
-156.1151413
11
111.4531881
21
-133.702793
0
LINE
8
0
10
131.381616
20
-85.4626876
11
164.0815263
21
-95.7729297
0
LINE
8
0
10
106.0191297
20
-159.2511982
11
157.5198451
21
-175.4893114
0
LINE
8
0
10
160.655902
20
-173.8567835
11
162.605144
21
-167.6745776
0
LINE
8
0
10
274.321601
20
-137.8619494
11
289.5810722
21
-133.0506566
0
LINE
8
0
10
274.9754869
20
-78.4138844
11
291.2136001
21
-129.9145997
0
LINE
8
0
10
269.832368
20
-131.9376953
11
271.1855441
21
-136.2294215
0
LINE
8
0
10
271.83943
20
-76.7813565
11
258.4873927
21
-80.9912377
0
LINE
8
0
10
253.3442738
20
-134.5150486
11
266.6963111
21
-130.3051674
0
LINE
8
0
10
248.8550408
20
-128.5907945
11
250.2082169
21
-132.8825207
0
LINE
8
0
10
255.3513358
20
-79.3587098
11
253.9981597
21
-75.0669836
0
LINE
8
0
10
250.8621028
20
-73.4344557
11
237.5100656
21
-77.6443369
0
LINE
8
0
10
234.2743806
20
-130.5667361
11
245.7189839
21
-126.9582665
0
LINE
8
0
10
234.3740087
20
-76.0118089
11
233.0208326
21
-71.7200827
0
LINE
8
0
10
229.8847757
20
-70.0875548
11
214.6253045
21
-74.8988476
0
LINE
8
0
10
212.9927766
20
-78.0349045
11
214.3459527
21
-82.3266307
0
LINE
8
0
10
232.6418527
20
-133.702793
11
239.708439
21
-156.1151413
0
LINE
8
0
10
180.0135145
20
-95.7729297
11
212.7134248
21
-85.4626876
0
LINE
8
0
10
186.5751957
20
-175.4893114
11
238.0759111
21
-159.2511982
0
LINE
8
0
10
181.4898968
20
-167.6745776
11
183.4391388
21
-173.8567835
0
LINE
8
0
10
164.8332907
20
-95.8886373
11
179.2617501
21
-95.8886373
0
LINE
8
0
10
164.9894364
20
-165.9263421
11
179.1056044
21
-165.9263421
0
ARC
8
0
10
70.5252043
20
-135.477657
40
2.5
50
252.5000008
51
342.5000008
0
ARC
8
0
10
76.6469652
20
-132.6894598
40
2.5
50
72.5000008
51
162.5000008
0
ARC
8
0
10
91.5025315
20
-132.1307562
40
2.5
50
252.5000008
51
342.5000008
0
ARC
8
0
10
97.6242924
20
-129.3425589
40
2.5
50
72.5000008
51
162.5000008
0
ARC
8
0
10
109.0688957
20
-132.9510285
40
2.5
50
342.5000008
51
72.5000008
0
ARC
8
0
10
106.7708942
20
-156.8669058
40
2.5
50
162.5000008
51
252.5000008
0
ARC
8
0
10
158.2716096
20
-173.105019
40
2.5
50
252.5000008
51
342.5000008
0
ARC
8
0
10
164.9894364
20
-168.4263421
40
2.5
50
90
51
162.5000008
0
ARC
8
0
10
179.1056044
20
-168.4263421
40
2.5
50
17.4999992
51
90
0
ARC
8
0
10
185.8234312
20
-173.105019
40
2.5
50
197.4999992
51
287.4999992
0
ARC
8
0
10
237.3241466
20
-156.8669058
40
2.5
50
287.4999992
51
17.4999992
0
ARC
8
0
10
235.0261451
20
-132.9510285
40
2.5
50
107.4999992
51
197.4999992
0
ARC
8
0
10
246.4707484
20
-129.3425589
40
2.5
50
17.4999992
51
107.4999992
0
ARC
8
0
10
252.5925093
20
-132.1307562
40
2.5
50
197.4999992
51
287.4999992
0
ARC
8
0
10
267.4480756
20
-132.6894598
40
2.5
50
17.4999992
51
107.4999992
0
ARC
8
0
10
273.5698365
20
-135.477657
40
2.5
50
197.4999992
51
287.4999992
0
ARC
8
0
10
288.8293077
20
-130.6663642
40
2.5
50
287.4999992
51
17.4999992
0
ARC
8
0
10
272.5911945
20
-79.1656489
40
2.5
50
17.4999992
51
107.4999992
0
ARC
8
0
10
257.7356282
20
-78.6069453
40
2.5
50
197.4999992
51
287.4999992
0
ARC
8
0
10
251.6138673
20
-75.8187481
40
2.5
50
17.4999992
51
107.4999992
0
ARC
8
0
10
236.7583011
20
-75.2600445
40
2.5
50
197.4999992
51
287.4999992
0
ARC
8
0
10
230.6365402
20
-72.4718472
40
2.5
50
17.4999992
51
107.4999992
0
ARC
8
0
10
215.377069
20
-77.28314
40
2.5
50
107.4999992
51
197.4999992
0
ARC
8
0
10
211.9616603
20
-83.0783952
40
2.5
50
287.4999992
51
17.4999992
0
ARC
8
0
10
179.2617501
20
-93.3886373
40
2.5
50
270
51
287.4999992
0
ARC
8
0
10
164.8332907
20
-93.3886373
40
2.5
50
252.5000008
51
270
0
ARC
8
0
10
132.1333805
20
-83.0783952
40
2.5
50
162.5000008
51
252.5000008
0
ARC
8
0
10
128.7179718
20
-77.28314
40
2.5
50
342.5000008
51
72.5000008
0
ARC
8
0
10
113.4585006
20
-72.4718472
40
2.5
50
72.5000008
51
162.5000008
0
ARC
8
0
10
107.3367397
20
-75.2600445
40
2.5
50
252.5000008
51
342.5000008
0
ARC
8
0
10
92.4811735
20
-75.8187481
40
2.5
50
72.5000008
51
162.5000008
0
ARC
8
0
10
86.3594126
20
-78.6069453
40
2.5
50
252.5000008
51
342.5000008
0
ARC
8
0
10
71.5038463
20
-79.1656489
40
2.5
50
72.5000008
51
162.5000008
0
ARC
8
0
10
55.2657331
20
-130.6663642
40
2.5
50
162.5000008
51
252.5000008
0
ENDSEC
0
EOF