0
SECTION
2
HEADER
9
$INSUNITS
70
4
0
ENDSEC
0
SECTION
2
TABLES
0
TABLE
2
LTYPE
0
LTYPE
72
65
70
64
2
CONTINUOUS
3
______
73
0
40
0
0
ENDTAB
0
TABLE
2
LAYER
0
ENDTAB
0
ENDSEC
0
SECTION
2
ENTITIES
0
LINE
8
0
10
52.1296762
20
-132.2988921
11
72.1577322
21
-138.6137139
0
LINE
8
0
10
72.1577322
20
-138.6137139
11
75.0144373
21
-129.5534029
0
LINE
8
0
10
52.1296762
20
-132.2988921
11
69.8713184
21
-76.029592
0
LINE
8
0
10
87.9919405
20
-81.7430022
11
69.8713184
21
-76.029592
0
LINE
8
0
10
75.0144373
20
-129.5534029
11
93.1350594
21
-135.2668131
0
LINE
8
0
10
93.1350594
20
-135.2668131
11
95.9917645
21
-126.206502
0
LINE
8
0
10
108.9692676
20
-78.3961014
11
90.8486456
21
-72.6826912
0
LINE
8
0
10
90.8486456
20
-72.6826912
11
87.9919405
21
-81.7430022
0
LINE
8
0
10
95.9917645
20
-126.206502
11
112.2049526
21
-131.3185006
0
LINE
8
0
10
128.9973236
20
-84.7109231
11
131.8540287
21
-75.6506121
0
LINE
8
0
10
131.8540287
20
-75.6506121
11
111.8259727
21
-69.3357903
0
LINE
8
0
10
111.8259727
20
-69.3357903
11
108.9692676
21
-78.3961014
0
LINE
8
0
10
103.6348373
20
-158.4994337
11
112.2049526
21
-131.3185006
0
LINE
8
0
10
128.9973236
20
-84.7109231
11
165.2385678
21
-96.1377435
0
LINE
8
0
10
148.0983372
20
-150.4996097
11
165.2385678
21
-96.1377435
0
LINE
8
0
10
103.6348373
20
-158.4994337
11
159.9041375
21
-176.2410759
0
LINE
8
0
10
159.9041375
20
-176.2410759
11
166.2189593
21
-156.2130199
0
LINE
8
0
10
166.2189593
20
-156.2130199
11
148.0983372
21
-150.4996097
0
LINE
8
0
10
271.9373086
20
-138.6137139
11
291.9653646
21
-132.2988921
0
LINE
8
0
10
274.2237224
20
-76.029592
11
291.9653646
21
-132.2988921
0
LINE
8
0
10
269.0806035
20
-129.5534029
11
271.9373086
21
-138.6137139
0
LINE
8
0
10
274.2237224
20
-76.029592
11
256.1031003
21
-81.7430022
0
LINE
8
0
10
250.9599814
20
-135.2668131
11
269.0806035
21
-129.5534029
0
LINE
8
0
10
248.1032763
20
-126.206502
11
250.9599814
21
-135.2668131
0
LINE
8
0
10
256.1031003
20
-81.7430022
11
253.2463952
21
-72.6826912
0
LINE
8
0
10
253.2463952
20
-72.6826912
11
235.1257732
21
-78.3961014
0
LINE
8
0
10
231.8900882
20
-131.3185006
11
248.1032763
21
-126.206502
0
LINE
8
0
10
235.1257732
20
-78.3961014
11
232.2690681
21
-69.3357903
0
LINE
8
0
10
232.2690681
20
-69.3357903
11
212.2410121
21
-75.6506121
0
LINE
8
0
10
212.2410121
20
-75.6506121
11
215.0977172
21
-84.7109231
0
LINE
8
0
10
231.8900882
20
-131.3185006
11
240.4602035
21
-158.4994337
0
LINE
8
0
10
178.856473
20
-96.1377435
11
215.0977172
21
-84.7109231
0
LINE
8
0
10
178.856473
20
-96.1377435
11
195.9967036
21
-150.4996097
0
LINE
8
0
10
184.1909033
20
-176.2410759
11
240.4602035
21
-158.4994337
0
LINE
8
0
10
195.9967036
20
-150.4996097
11
177.8760815
21
-156.2130199
0
LINE
8
0
10
177.8760815
20
-156.2130199
11
184.1909033
21
-176.2410759
0
ENDSEC
0
EOF