0
SECTION
2
HEADER
9
$INSUNITS
70
4
0
ENDSEC
0
SECTION
2
TABLES
0
TABLE
2
LTYPE
0
LTYPE
72
65
70
64
2
CONTINUOUS
3
______
73
0
40
0
0
ENDTAB
0
TABLE
2
LAYER
0
ENDTAB
0
ENDSEC
0
SECTION
2
ENTITIES
0
LINE
8
0
10
52.1296762
20
-132.2988921
11
72.1577322
21
-138.6137139
0
LINE
8
0
10
72.1577322
20
-138.6137139
11
75.0144373
21
-129.5534029
0
LINE
8
0
10
52.1296762
20
-132.2988921
11
69.8713184
21
-76.029592
0
LINE
8
0
10
87.9919405
20
-81.7430022
11
69.8713184
21
-76.029592
0
LINE
8
0
10
75.0144373
20
-129.5534029
11
93.1350594
21
-135.2668131
0
LINE
8
0
10
93.1350594
20
-135.2668131
11
95.9917645
21
-126.206502
0
LINE
8
0
10
108.9692676
20
-78.3961014
11
90.8486456
21
-72.6826912
0
LINE
8
0
10
90.8486456
20
-72.6826912
11
87.9919405
21
-81.7430022
0
LINE
8
0
10
95.9917645
20
-126.206502
11
112.2049526
21
-131.3185006
0
LINE
8
0
10
128.9973236
20
-84.7109231
11
131.8540287
21
-75.6506121
0
LINE
8
0
10
131.8540287
20
-75.6506121
11
111.8259727
21
-69.3357903
0
LINE
8
0
10
111.8259727
20
-69.3357903
11
108.9692676
21
-78.3961014
0
LINE
8
0
10
103.6348373
20
-158.4994337
11
112.2049526
21
-131.3185006
0
LINE
8
0
10
128.9973236
20
-84.7109231
11
165.2385678
21
-96.1377435
0
LINE
8
0
10
148.0983372
20
-150.4996097
11
165.2385678
21
-96.1377435
0
LINE
8
0
10
103.6348373
20
-158.4994337
11
159.9041375
21
-176.2410759
0
LINE
8
0
10
159.9041375
20
-176.2410759
11
166.2189593
21
-156.2130199
0
LINE
8
0
10
166.2189593
20
-156.2130199
11
148.0983372
21
-150.4996097
0
LINE
8
0
10
271.9373086
20
-138.6137139
11
291.9653646
21
-132.2988921
0
LINE
8
0
10
274.2237224
20
-76.029592
11
291.9653646
21
-132.2988921
0
LINE
8
0
10
269.0806035
20
-129.5534029
11
271.9373086
21
-138.6137139
0
LINE
8
0
10
274.2237224
20
-76.029592
11
256.1031003
21
-81.7430022
0
LINE
8
0
10
250.9599814
20
-135.2668131
11
269.0806035
21
-129.5534029
0
LINE
8
0
10
248.1032763
20
-126.206502
11
250.9599814
21
-135.2668131
0
LINE
8
0
10
256.1031003
20
-81.7430022
11
253.2463952
21
-72.6826912
0
LINE
8
0
10
253.2463952
20
-72.6826912
11
235.1257732
21
-78.3961014
0
LINE
8
0
10
231.8900882
20
-131.3185006
11
248.1032763
21
-126.206502
0
LINE
8
0
10
235.1257732
20
-78.3961014
11
232.2690681
21
-69.3357903
0
LINE
8
0
10
232.2690681
20
-69.3357903
11
212.2410121
21
-75.6506121
0
LINE
8
0
10
212.2410121
20
-75.6506121
11
215.0977172
21
-84.7109231
0
LINE
8
0
10
231.8900882
20
-131.3185006
11
240.4602035
21
-158.4994337
0
LINE
8
0
10
178.856473
20
-96.1377435
11
215.0977172
21
-84.7109231
0
LINE
8
0
10
178.856473
20
-96.1377435
11
195.9967036
21
-150.4996097
0
LINE
8
0
10
184.1909033
20
-176.2410759
11
240.4602035
21
-158.4994337
0
LINE
8
0
10
195.9967036
20
-150.4996097
11
177.8760815
21
-156.2130199
0
LINE
8
0
10
177.8760815
20
-156.2130199
11
184.1909033
21
-176.2410759
0
LINE
8
0
10
53.5409018
20
-131.5642545
11
71.4230946
21
-137.2024883
0
LINE
8
0
10
71.4230946
20
-137.2024883
11
77.0613284
21
-119.3202955
0
LINE
8
0
10
77.0613284
20
-119.3202955
11
59.1791356
21
-113.6820617
0
LINE
8
0
10
59.1791356
20
-113.6820617
11
53.5409018
21
-131.5642545
0
LINE
8
0
10
59.254312
20
-113.4436325
11
77.1365048
21
-119.0818663
0
LINE
8
0
10
77.1365048
20
-119.0818663
11
82.7747386
21
-101.1996735
0
LINE
8
0
10
82.7747386
20
-101.1996735
11
64.8925458
21
-95.5614397
0
LINE
8
0
10
64.8925458
20
-95.5614397
11
59.254312
21
-113.4436325
0
LINE
8
0
10
64.9677222
20
-95.3230104
11
82.849915
21
-100.9612442
0
LINE
8
0
10
82.849915
20
-100.9612442
11
88.4881488
21
-83.0790514
0
LINE
8
0
10
88.4881488
20
-83.0790514
11
70.605956
21
-77.4408176
0
LINE
8
0
10
70.605956
20
-77.4408176
11
64.9677222
21
-95.3230104
0
LINE
8
0
10
74.518229
20
-128.2173537
11
92.4004218
21
-133.8555875
0
LINE
8
0
10
92.4004218
20
-133.8555875
11
98.0386556
21
-115.9733947
0
LINE
8
0
10
98.0386556
20
-115.9733947
11
80.1564628
21
-110.3351609
0
LINE
8
0
10
80.1564628
20
-110.3351609
11
74.518229
21
-128.2173537
0
LINE
8
0
10
80.2316392
20
-110.0967316
11
98.113832
21
-115.7349654
0
LINE
8
0
10
98.113832
20
-115.7349654
11
103.7520658
21
-97.8527726
0
LINE
8
0
10
103.7520658
20
-97.8527726
11
85.869873
21
-92.2145388
0
LINE
8
0
10
85.869873
20
-92.2145388
11
80.2316392
21
-110.0967316
0
LINE
8
0
10
85.9450494
20
-91.9761096
11
103.8272422
21
-97.6143434
0
LINE
8
0
10
103.8272422
20
-97.6143434
11
109.465476
21
-79.7321506
0
LINE
8
0
10
109.465476
20
-79.7321506
11
91.5832832
21
-74.0939168
0
LINE
8
0
10
91.5832832
20
-74.0939168
11
85.9450494
21
-91.9761096
0
LINE
8
0
10
95.4955561
20
-124.8704528
11
113.3777489
21
-130.5086866
0
LINE
8
0
10
113.3777489
20
-130.5086866
11
119.0159827
21
-112.6264938
0
LINE
8
0
10
119.0159827
20
-112.6264938
11
101.1337899
21
-106.98826
0
LINE
8
0
10
101.1337899
20
-106.98826
11
95.4955561
21
-124.8704528
0
LINE
8
0
10
101.2089663
20
-106.7498308
11
119.0911591
21
-112.3880646
0
LINE
8
0
10
119.0911591
20
-112.3880646
11
124.7293929
21
-94.5058718
0
LINE
8
0
10
124.7293929
20
-94.5058718
11
106.8472001
21
-88.867638
0
LINE
8
0
10
106.8472001
20
-88.867638
11
101.2089663
21
-106.7498308
0
LINE
8
0
10
106.9223765
20
-88.6292087
11
124.8045693
21
-94.2674425
0
LINE
8
0
10
124.8045693
20
-94.2674425
11
130.4428031
21
-76.3852497
0
LINE
8
0
10
130.4428031
20
-76.3852497
11
112.5606103
21
-70.7470159
0
LINE
8
0
10
112.5606103
20
-70.7470159
11
106.9223765
21
-88.6292087
0
LINE
8
0
10
110.7594731
20
-139.6441741
11
128.6416659
21
-145.2824079
0
LINE
8
0
10
128.6416659
20
-145.2824079
11
134.2798997
21
-127.4002151
0
LINE
8
0
10
134.2798997
20
-127.4002151
11
116.3977069
21
-121.7619813
0
LINE
8
0
10
116.3977069
20
-121.7619813
11
110.7594731
21
-139.6441741
0
LINE
8
0
10
116.4728833
20
-121.523552
11
134.3550761
21
-127.1617858
0
LINE
8
0
10
134.3550761
20
-127.1617858
11
139.9933099
21
-109.279593
0
LINE
8
0
10
139.9933099
20
-109.279593
11
122.1111171
21
-103.6413592
0
LINE
8
0
10
122.1111171
20
-103.6413592
11
116.4728833
21
-121.523552
0
LINE
8
0
10
122.1862935
20
-103.4029299
11
140.0684863
21
-109.0411637
0
LINE
8
0
10
140.0684863
20
-109.0411637
11
145.7067201
21
-91.1589709
0
LINE
8
0
10
145.7067201
20
-91.1589709
11
127.8245273
21
-85.5207371
0
LINE
8
0
10
127.8245273
20
-85.5207371
11
122.1862935
21
-103.4029299
0
LINE
8
0
10
128.8800952
20
-145.3575843
11
146.762288
21
-150.9958181
0
LINE
8
0
10
146.762288
20
-150.9958181
11
152.4005218
21
-133.1136253
0
LINE
8
0
10
152.4005218
20
-133.1136253
11
134.518329
21
-127.4753915
0
LINE
8
0
10
134.518329
20
-127.4753915
11
128.8800952
21
-145.3575843
0
LINE
8
0
10
134.5935054
20
-127.2369622
11
152.4756982
21
-132.875196
0
LINE
8
0
10
152.4756982
20
-132.875196
11
158.113932
21
-114.9930032
0
LINE
8
0
10
158.113932
20
-114.9930032
11
140.2317392
21
-109.3547694
0
LINE
8
0
10
140.2317392
20
-109.3547694
11
134.5935054
21
-127.2369622
0
LINE
8
0
10
140.3069156
20
-109.1163401
11
158.1891084
21
-114.7545739
0
LINE
8
0
10
158.1891084
20
-114.7545739
11
163.8273422
21
-96.8723811
0
LINE
8
0
10
163.8273422
20
-96.8723811
11
145.9451494
21
-91.2341473
0
LINE
8
0
10
145.9451494
20
-91.2341473
11
140.3069156
21
-109.1163401
0
LINE
8
0
10
105.0460629
20
-157.7647961
11
122.9282557
21
-163.4030299
0
LINE
8
0
10
122.9282557
20
-163.4030299
11
128.5664895
21
-145.5208371
0
LINE
8
0
10
128.5664895
20
-145.5208371
11
110.6842967
21
-139.8826033
0
LINE
8
0
10
110.6842967
20
-139.8826033
11
105.0460629
21
-157.7647961
0
LINE
8
0
10
123.166685
20
-163.4782063
11
141.0488778
21
-169.1164401
0
LINE
8
0
10
141.0488778
20
-169.1164401
11
146.6871116
21
-151.2342473
0
LINE
8
0
10
146.6871116
20
-151.2342473
11
128.8049188
21
-145.5960135
0
LINE
8
0
10
128.8049188
20
-145.5960135
11
123.166685
21
-163.4782063
0
LINE
8
0
10
141.2873071
20
-169.1916165
11
159.1694999
21
-174.8298503
0
LINE
8
0
10
159.1694999
20
-174.8298503
11
164.8077337
21
-156.9476575
0
LINE
8
0
10
164.8077337
20
-156.9476575
11
146.9255409
21
-151.3094237
0
LINE
8
0
10
146.9255409
20
-151.3094237
11
141.2873071
21
-169.1916165
0
LINE
8
0
10
272.6719462
20
-137.2024883
11
290.554139
21
-131.5642545
0
LINE
8
0
10
290.554139
20
-131.5642545
11
284.9159052
21
-113.6820617
0
LINE
8
0
10
284.9159052
20
-113.6820617
11
267.0337124
21
-119.3202955
0
LINE
8
0
10
267.0337124
20
-119.3202955
11
272.6719462
21
-137.2024883
0
LINE
8
0
10
266.958536
20
-119.0818663
11
284.8407288
21
-113.4436325
0
LINE
8
0
10
284.8407288
20
-113.4436325
11
279.202495
21
-95.5614397
0
LINE
8
0
10
279.202495
20
-95.5614397
11
261.3203022
21
-101.1996735
0
LINE
8
0
10
261.3203022
20
-101.1996735
11
266.958536
21
-119.0818663
0
LINE
8
0
10
261.2451258
20
-100.9612442
11
279.1273186
21
-95.3230104
0
LINE
8
0
10
279.1273186
20
-95.3230104
11
273.4890848
21
-77.4408176
0
LINE
8
0
10
273.4890848
20
-77.4408176
11
255.606892
21
-83.0790514
0
LINE
8
0
10
255.606892
20
-83.0790514
11
261.2451258
21
-100.9612442
0
LINE
8
0
10
251.694619
20
-133.8555875
11
269.5768118
21
-128.2173537
0
LINE
8
0
10
269.5768118
20
-128.2173537
11
263.938578
21
-110.3351609
0
LINE
8
0
10
263.938578
20
-110.3351609
11
246.0563852
21
-115.9733947
0
LINE
8
0
10
246.0563852
20
-115.9733947
11
251.694619
21
-133.8555875
0
LINE
8
0
10
245.9812088
20
-115.7349654
11
263.8634016
21
-110.0967316
0
LINE
8
0
10
263.8634016
20
-110.0967316
11
258.2251678
21
-92.2145388
0
LINE
8
0
10
258.2251678
20
-92.2145388
11
240.342975
21
-97.8527726
0
LINE
8
0
10
240.342975
20
-97.8527726
11
245.9812088
21
-115.7349654
0
LINE
8
0
10
240.2677986
20
-97.6143434
11
258.1499914
21
-91.9761096
0
LINE
8
0
10
258.1499914
20
-91.9761096
11
252.5117576
21
-74.0939168
0
LINE
8
0
10
252.5117576
20
-74.0939168
11
234.6295648
21
-79.7321506
0
LINE
8
0
10
234.6295648
20
-79.7321506
11
240.2677986
21
-97.6143434
0
LINE
8
0
10
230.7172919
20
-130.5086866
11
248.5994847
21
-124.8704528
0
LINE
8
0
10
248.5994847
20
-124.8704528
11
242.9612509
21
-106.98826
0
LINE
8
0
10
242.9612509
20
-106.98826
11
225.0790581
21
-112.6264938
0
LINE
8
0
10
225.0790581
20
-112.6264938
11
230.7172919
21
-130.5086866
0
LINE
8
0
10
225.0038817
20
-112.3880646
11
242.8860745
21
-106.7498308
0
LINE
8
0
10
242.8860745
20
-106.7498308
11
237.2478407
21
-88.867638
0
LINE
8
0
10
237.2478407
20
-88.867638
11
219.3656479
21
-94.5058718
0
LINE
8
0
10
219.3656479
20
-94.5058718
11
225.0038817
21
-112.3880646
0
LINE
8
0
10
219.2904715
20
-94.2674425
11
237.1726643
21
-88.6292087
0
LINE
8
0
10
237.1726643
20
-88.6292087
11
231.5344305
21
-70.7470159
0
LINE
8
0
10
231.5344305
20
-70.7470159
11
213.6522377
21
-76.3852497
0
LINE
8
0
10
213.6522377
20
-76.3852497
11
219.2904715
21
-94.2674425
0
LINE
8
0
10
215.4533749
20
-145.2824079
11
233.3355677
21
-139.6441741
0
LINE
8
0
10
233.3355677
20
-139.6441741
11
227.6973339
21
-121.7619813
0
LINE
8
0
10
227.6973339
20
-121.7619813
11
209.8151411
21
-127.4002151
0
LINE
8
0
10
209.8151411
20
-127.4002151
11
215.4533749
21
-145.2824079
0
LINE
8
0
10
209.7399647
20
-127.1617858
11
227.6221575
21
-121.523552
0
LINE
8
0
10
227.6221575
20
-121.523552
11
221.9839237
21
-103.6413592
0
LINE
8
0
10
221.9839237
20
-103.6413592
11
204.1017309
21
-109.279593
0
LINE
8
0
10
204.1017309
20
-109.279593
11
209.7399647
21
-127.1617858
0
LINE
8
0
10
204.0265545
20
-109.0411637
11
221.9087473
21
-103.4029299
0
LINE
8
0
10
221.9087473
20
-103.4029299
11
216.2705135
21
-85.5207371
0
LINE
8
0
10
216.2705135
20
-85.5207371
11
198.3883207
21
-91.1589709
0
LINE
8
0
10
198.3883207
20
-91.1589709
11
204.0265545
21
-109.0411637
0
LINE
8
0
10
197.3327528
20
-150.9958181
11
215.2149456
21
-145.3575843
0
LINE
8
0
10
215.2149456
20
-145.3575843
11
209.5767118
21
-127.4753915
0
LINE
8
0
10
209.5767118
20
-127.4753915
11
191.694519
21
-133.1136253
0
LINE
8
0
10
191.694519
20
-133.1136253
11
197.3327528
21
-150.9958181
0
LINE
8
0
10
191.6193426
20
-132.875196
11
209.5015354
21
-127.2369622
0
LINE
8
0
10
209.5015354
20
-127.2369622
11
203.8633016
21
-109.3547694
0
LINE
8
0
10
203.8633016
20
-109.3547694
11
185.9811088
21
-114.9930032
0
LINE
8
0
10
185.9811088
20
-114.9930032
11
191.6193426
21
-132.875196
0
LINE
8
0
10
185.9059324
20
-114.7545739
11
203.7881252
21
-109.1163401
0
LINE
8
0
10
203.7881252
20
-109.1163401
11
198.1498914
21
-91.2341473
0
LINE
8
0
10
198.1498914
20
-91.2341473
11
180.2676986
21
-96.8723811
0
LINE
8
0
10
180.2676986
20
-96.8723811
11
185.9059324
21
-114.7545739
0
LINE
8
0
10
221.1667851
20
-163.4030299
11
239.0489779
21
-157.7647961
0
LINE
8
0
10
239.0489779
20
-157.7647961
11
233.4107441
21
-139.8826033
0
LINE
8
0
10
233.4107441
20
-139.8826033
11
215.5285513
21
-145.5208371
0
LINE
8
0
10
215.5285513
20
-145.5208371
11
221.1667851
21
-163.4030299
0
LINE
8
0
10
203.046163
20
-169.1164401
11
220.9283558
21
-163.4782063
0
LINE
8
0
10
220.9283558
20
-163.4782063
11
215.290122
21
-145.5960135
0
LINE
8
0
10
215.290122
20
-145.5960135
11
197.4079292
21
-151.2342473
0
LINE
8
0
10
197.4079292
20
-151.2342473
11
203.046163
21
-169.1164401
0
LINE
8
0
10
184.9255409
20
-174.8298503
11
202.8077337
21
-169.1916165
0
LINE
8
0
10
202.8077337
20
-169.1916165
11
197.1694999
21
-151.3094237
0
LINE
8
0
10
197.1694999
20
-151.3094237
11
179.2873071
21
-156.9476575
0
LINE
8
0
10
179.2873071
20
-156.9476575
11
184.9255409
21
-174.8298503
0
ENDSEC
0
EOF