0
SECTION
2
HEADER
9
$INSUNITS
70
4
0
ENDSEC
0
SECTION
2
TABLES
0
TABLE
2
LTYPE
0
LTYPE
72
65
70
64
2
CONTINUOUS
3
______
73
0
40
0
0
ENDTAB
0
TABLE
2
LAYER
0
ENDTAB
0
ENDSEC
0
SECTION
2
ENTITIES
0
LINE
8
0
10
50.2480421
20
-133.2784088
11
73.1372489
21
-140.495348
0
LINE
8
0
10
73.1372489
20
-140.495348
11
75.993954
21
-131.435037
0
LINE
8
0
10
50.2480421
20
-133.2784088
11
68.8918017
21
-74.1479579
0
LINE
8
0
10
87.0124238
20
-79.8613681
11
68.8918017
21
-74.1479579
0
LINE
8
0
10
75.993954
20
-131.435037
11
94.1145761
21
-137.1484472
0
LINE
8
0
10
94.1145761
20
-137.1484472
11
96.9712812
21
-128.0881361
0
LINE
8
0
10
107.9897509
20
-76.5144673
11
89.8691289
21
-70.8010571
0
LINE
8
0
10
89.8691289
20
-70.8010571
11
87.0124238
21
-79.8613681
0
LINE
8
0
10
96.9712812
20
-128.0881361
11
110.3233185
21
-132.2980173
0
LINE
8
0
10
130.8789577
20
-83.7314064
11
133.7356628
21
-74.6710954
0
LINE
8
0
10
133.7356628
20
-74.6710954
11
110.846456
21
-67.4541562
0
LINE
8
0
10
110.846456
20
-67.4541562
11
107.9897509
21
-76.5144673
0
LINE
8
0
10
101.7532032
20
-159.4789504
11
110.3233185
21
-132.2980173
0
LINE
8
0
10
130.8789577
20
-83.7314064
11
167.1202019
21
-95.1582268
0
LINE
8
0
10
149.9799713
20
-149.520093
11
167.1202019
21
-95.1582268
0
LINE
8
0
10
101.7532032
20
-159.4789504
11
160.8836542
21
-178.12271
0
LINE
8
0
10
160.8836542
20
-178.12271
11
168.1005934
21
-155.2335032
0
LINE
8
0
10
168.1005934
20
-155.2335032
11
149.9799713
21
-149.520093
0
LINE
8
0
10
270.9577919
20
-140.495348
11
293.8469987
21
-133.2784088
0
LINE
8
0
10
275.2032391
20
-74.1479579
11
293.8469987
21
-133.2784088
0
LINE
8
0
10
268.1010868
20
-131.435037
11
270.9577919
21
-140.495348
0
LINE
8
0
10
275.2032391
20
-74.1479579
11
257.082617
21
-79.8613681
0
LINE
8
0
10
249.9804647
20
-137.1484472
11
268.1010868
21
-131.435037
0
LINE
8
0
10
247.1237596
20
-128.0881361
11
249.9804647
21
-137.1484472
0
LINE
8
0
10
257.082617
20
-79.8613681
11
254.2259119
21
-70.8010571
0
LINE
8
0
10
254.2259119
20
-70.8010571
11
236.1052899
21
-76.5144673
0
LINE
8
0
10
233.7717223
20
-132.2980173
11
247.1237596
21
-128.0881361
0
LINE
8
0
10
236.1052899
20
-76.5144673
11
233.2485848
21
-67.4541562
0
LINE
8
0
10
233.2485848
20
-67.4541562
11
210.359378
21
-74.6710954
0
LINE
8
0
10
210.359378
20
-74.6710954
11
213.2160831
21
-83.7314064
0
LINE
8
0
10
233.7717223
20
-132.2980173
11
242.3418376
21
-159.4789504
0
LINE
8
0
10
176.9748389
20
-95.1582268
11
213.2160831
21
-83.7314064
0
LINE
8
0
10
176.9748389
20
-95.1582268
11
194.1150695
21
-149.520093
0
LINE
8
0
10
183.2113866
20
-178.12271
11
242.3418376
21
-159.4789504
0
LINE
8
0
10
194.1150695
20
-149.520093
11
175.9944474
21
-155.2335032
0
LINE
8
0
10
175.9944474
20
-155.2335032
11
183.2113866
21
-178.12271
0
ENDSEC
0
EOF