0
SECTION
2
HEADER
9
$INSUNITS
70
4
0
ENDSEC
0
SECTION
2
TABLES
0
TABLE
2
LTYPE
0
LTYPE
72
65
70
64
2
CONTINUOUS
3
______
73
0
40
0
0
ENDTAB
0
TABLE
2
LAYER
0
ENDTAB
0
ENDSEC
0
SECTION
2
ENTITIES
0
LINE
8
0
10
52.6323345
20
-134.0301733
11
70.7529565
21
-139.7435835
0
LINE
8
0
10
73.8890134
20
-138.1110556
11
75.2421895
21
-133.8193294
0
LINE
8
0
10
50.9998066
20
-130.8941164
11
68.1400372
21
-76.5322503
0
LINE
8
0
10
84.6281314
20
-79.1096036
11
71.2760941
21
-74.8997224
0
LINE
8
0
10
78.3782464
20
-132.1868015
11
91.7302837
21
-136.3966827
0
LINE
8
0
10
94.8663406
20
-134.7641548
11
96.2195167
21
-130.4724286
0
LINE
8
0
10
105.6054585
20
-75.7627028
11
92.2534213
21
-71.5528216
0
LINE
8
0
10
89.1173644
20
-73.1853495
11
87.7641883
21
-77.4770757
0
LINE
8
0
10
99.3555736
20
-128.8399006
11
107.9390261
21
-131.5462528
0
LINE
8
0
10
131.6307222
20
-81.347114
11
132.9838983
21
-77.0553878
0
LINE
8
0
10
131.3513704
20
-73.9193309
11
113.2307484
21
-68.2059207
0
LINE
8
0
10
110.0946915
20
-69.8384486
11
108.7415154
21
-74.1301748
0
LINE
8
0
10
102.5049677
20
-157.094658
11
109.571554
21
-134.6823097
0
LINE
8
0
10
133.2632502
20
-84.4831709
11
164.4253324
21
-94.3085377
0
LINE
8
0
10
104.1374956
20
-160.2307149
11
158.4993618
21
-177.3709455
0
LINE
8
0
10
161.6354187
20
-175.7384176
11
163.7254772
21
-169.1095988
0
LINE
8
0
10
273.3420843
20
-139.7435835
11
291.4627063
21
-134.0301733
0
LINE
8
0
10
275.9550036
20
-76.5322503
11
293.0952342
21
-130.8941164
0
LINE
8
0
10
268.8528513
20
-133.8193294
11
270.2060274
21
-138.1110556
0
LINE
8
0
10
272.8189467
20
-74.8997224
11
259.4669094
21
-79.1096036
0
LINE
8
0
10
252.3647571
20
-136.3966827
11
265.7167944
21
-132.1868015
0
LINE
8
0
10
247.8755241
20
-130.4724286
11
249.2287002
21
-134.7641548
0
LINE
8
0
10
256.3308525
20
-77.4770757
11
254.9776764
21
-73.1853495
0
LINE
8
0
10
251.8416195
20
-71.5528216
11
238.4895823
21
-75.7627028
0
LINE
8
0
10
236.1560147
20
-131.5462528
11
244.7394672
21
-128.8399006
0
LINE
8
0
10
235.3535254
20
-74.1301748
11
234.0003493
21
-69.8384486
0
LINE
8
0
10
230.8642924
20
-68.2059207
11
212.7436704
21
-73.9193309
0
LINE
8
0
10
211.1111425
20
-77.0553878
11
212.4643186
21
-81.347114
0
LINE
8
0
10
234.5234868
20
-134.6823097
11
241.5900731
21
-157.094658
0
LINE
8
0
10
179.6697084
20
-94.3085377
11
210.8317906
21
-84.4831709
0
LINE
8
0
10
185.595679
20
-177.3709455
11
239.9575452
21
-160.2307149
0
LINE
8
0
10
180.3695636
20
-169.1095988
11
182.4596221
21
-175.7384176
0
LINE
8
0
10
178.9179439
20
-94.4242453
11
165.1770969
21
-94.4242453
0
LINE
8
0
10
166.1097697
20
-167.3613633
11
177.9852711
21
-167.3613633
0
ARC
8
0
10
71.504721
20
-137.3592911
40
2.5
50
252.5000008
51
342.5000008
0
ARC
8
0
10
77.6264819
20
-134.5710939
40
2.5
50
72.5000008
51
162.5000008
0
ARC
8
0
10
92.4820482
20
-134.0123903
40
2.5
50
252.5000008
51
342.5000008
0
ARC
8
0
10
98.6038091
20
-131.224193
40
2.5
50
72.5000008
51
162.5000008
0
ARC
8
0
10
107.1872616
20
-133.9305452
40
2.5
50
342.5000008
51
72.5000008
0
ARC
8
0
10
104.8892601
20
-157.8464225
40
2.5
50
162.5000008
51
252.5000008
0
ARC
8
0
10
159.2511263
20
-174.9866531
40
2.5
50
252.5000008
51
342.5000008
0
ARC
8
0
10
166.1097697
20
-169.8613633
40
2.5
50
90
51
162.5000008
0
ARC
8
0
10
177.9852711
20
-169.8613633
40
2.5
50
17.4999992
51
90
0
ARC
8
0
10
184.8439145
20
-174.9866531
40
2.5
50
197.4999992
51
287.4999992
0
ARC
8
0
10
239.2057807
20
-157.8464225
40
2.5
50
287.4999992
51
17.4999992
0
ARC
8
0
10
236.9077792
20
-133.9305452
40
2.5
50
107.4999992
51
197.4999992
0
ARC
8
0
10
245.4912317
20
-131.224193
40
2.5
50
17.4999992
51
107.4999992
0
ARC
8
0
10
251.6129926
20
-134.0123903
40
2.5
50
197.4999992
51
287.4999992
0
ARC
8
0
10
266.4685589
20
-134.5710939
40
2.5
50
17.4999992
51
107.4999992
0
ARC
8
0
10
272.5903198
20
-137.3592911
40
2.5
50
197.4999992
51
287.4999992
0
ARC
8
0
10
290.7109418
20
-131.6458809
40
2.5
50
287.4999992
51
17.4999992
0
ARC
8
0
10
273.5707112
20
-77.2840148
40
2.5
50
17.4999992
51
107.4999992
0
ARC
8
0
10
258.7151449
20
-76.7253112
40
2.5
50
197.4999992
51
287.4999992
0
ARC
8
0
10
252.593384
20
-73.937114
40
2.5
50
17.4999992
51
107.4999992
0
ARC
8
0
10
237.7378178
20
-73.3784104
40
2.5
50
197.4999992
51
287.4999992
0
ARC
8
0
10
231.6160569
20
-70.5902131
40
2.5
50
17.4999992
51
107.4999992
0
ARC
8
0
10
213.4954349
20
-76.3036233
40
2.5
50
107.4999992
51
197.4999992
0
ARC
8
0
10
210.0800262
20
-82.0988785
40
2.5
50
287.4999992
51
17.4999992
0
ARC
8
0
10
178.9179439
20
-91.9242453
40
2.5
50
270
51
287.4999992
0
ARC
8
0
10
165.1770969
20
-91.9242453
40
2.5
50
252.5000008
51
270
0
ARC
8
0
10
134.0150146
20
-82.0988785
40
2.5
50
162.5000008
51
252.5000008
0
ARC
8
0
10
130.5996059
20
-76.3036233
40
2.5
50
342.5000008
51
72.5000008
0
ARC
8
0
10
112.4789839
20
-70.5902131
40
2.5
50
72.5000008
51
162.5000008
0
ARC
8
0
10
106.357223
20
-73.3784104
40
2.5
50
252.5000008
51
342.5000008
0
ARC
8
0
10
91.5016568
20
-73.937114
40
2.5
50
72.5000008
51
162.5000008
0
ARC
8
0
10
85.3798959
20
-76.7253112
40
2.5
50
252.5000008
51
342.5000008
0
ARC
8
0
10
70.5243296
20
-77.2840148
40
2.5
50
72.5000008
51
162.5000008
0
ARC
8
0
10
53.384099
20
-131.6458809
40
2.5
50
162.5000008
51
252.5000008
0
LINE
8
0
10
54.5139686
20
-133.0506566
11
69.7734398
21
-137.8619494
0
LINE
8
0
10
72.9094967
20
-136.2294215
11
74.2626728
21
-131.9376953
0
LINE
8
0
10
52.8814407
20
-129.9145997
11
69.1195539
21
-78.4138844
0
LINE
8
0
10
85.6076481
20
-80.9912377
11
72.2556108
21
-76.7813565
0
LINE
8
0
10
77.3987297
20
-130.3051674
11
90.750767
21
-134.5150486
0
LINE
8
0
10
93.8868239
20
-132.8825207
11
95.24
21
-128.5907945
0
LINE
8
0
10
106.5849752
20
-77.6443369
11
93.232938
21
-73.4344557
0
LINE
8
0
10
90.0968811
20
-75.0669836
11
88.743705
21
-79.3587098
0
LINE
8
0
10
98.3760569
20
-126.9582665
11
109.8206602
21
-130.5667361
0
LINE
8
0
10
129.7490881
20
-82.3266307
11
131.1022642
21
-78.0349045
0
LINE
8
0
10
129.4697363
20
-74.8988476
11
114.2102651
21
-70.0875548
0
LINE
8
0
10
111.0742082
20
-71.7200827
11
109.7210321
21
-76.0118089
0
LINE
8
0
10
104.3866018
20
-156.1151413
11
111.4531881
21
-133.702793
0
LINE
8
0
10
131.381616
20
-85.4626876
11
164.0815263
21
-95.7729297
0
LINE
8
0
10
106.0191297
20
-159.2511982
11
157.5198451
21
-175.4893114
0
LINE
8
0
10
160.655902
20
-173.8567835
11
162.605144
21
-167.6745776
0
LINE
8
0
10
274.321601
20
-137.8619494
11
289.5810722
21
-133.0506566
0
LINE
8
0
10
274.9754869
20
-78.4138844
11
291.2136001
21
-129.9145997
0
LINE
8
0
10
269.832368
20
-131.9376953
11
271.1855441
21
-136.2294215
0
LINE
8
0
10
271.83943
20
-76.7813565
11
258.4873927
21
-80.9912377
0
LINE
8
0
10
253.3442738
20
-134.5150486
11
266.6963111
21
-130.3051674
0
LINE
8
0
10
248.8550408
20
-128.5907945
11
250.2082169
21
-132.8825207
0
LINE
8
0
10
255.3513358
20
-79.3587098
11
253.9981597
21
-75.0669836
0
LINE
8
0
10
250.8621028
20
-73.4344557
11
237.5100656
21
-77.6443369
0
LINE
8
0
10
234.2743806
20
-130.5667361
11
245.7189839
21
-126.9582665
0
LINE
8
0
10
234.3740087
20
-76.0118089
11
233.0208326
21
-71.7200827
0
LINE
8
0
10
229.8847757
20
-70.0875548
11
214.6253045
21
-74.8988476
0
LINE
8
0
10
212.9927766
20
-78.0349045
11
214.3459527
21
-82.3266307
0
LINE
8
0
10
232.6418527
20
-133.702793
11
239.708439
21
-156.1151413
0
LINE
8
0
10
180.0135145
20
-95.7729297
11
212.7134248
21
-85.4626876
0
LINE
8
0
10
186.5751957
20
-175.4893114
11
238.0759111
21
-159.2511982
0
LINE
8
0
10
181.4898968
20
-167.6745776
11
183.4391388
21
-173.8567835
0
LINE
8
0
10
164.8332907
20
-95.8886373
11
179.2617501
21
-95.8886373
0
LINE
8
0
10
164.9894364
20
-165.9263421
11
179.1056044
21
-165.9263421
0
ARC
8
0
10
70.5252043
20
-135.477657
40
2.5
50
252.5000008
51
342.5000008
0
ARC
8
0
10
76.6469652
20
-132.6894598
40
2.5
50
72.5000008
51
162.5000008
0
ARC
8
0
10
91.5025315
20
-132.1307562
40
2.5
50
252.5000008
51
342.5000008
0
ARC
8
0
10
97.6242924
20
-129.3425589
40
2.5
50
72.5000008
51
162.5000008
0
ARC
8
0
10
109.0688957
20
-132.9510285
40
2.5
50
342.5000008
51
72.5000008
0
ARC
8
0
10
106.7708942
20
-156.8669058
40
2.5
50
162.5000008
51
252.5000008
0
ARC
8
0
10
158.2716096
20
-173.105019
40
2.5
50
252.5000008
51
342.5000008
0
ARC
8
0
10
164.9894364
20
-168.4263421
40
2.5
50
90
51
162.5000008
0
ARC
8
0
10
179.1056044
20
-168.4263421
40
2.5
50
17.4999992
51
90
0
ARC
8
0
10
185.8234312
20
-173.105019
40
2.5
50
197.4999992
51
287.4999992
0
ARC
8
0
10
237.3241466
20
-156.8669058
40
2.5
50
287.4999992
51
17.4999992
0
ARC
8
0
10
235.0261451
20
-132.9510285
40
2.5
50
107.4999992
51
197.4999992
0
ARC
8
0
10
246.4707484
20
-129.3425589
40
2.5
50
17.4999992
51
107.4999992
0
ARC
8
0
10
252.5925093
20
-132.1307562
40
2.5
50
197.4999992
51
287.4999992
0
ARC
8
0
10
267.4480756
20
-132.6894598
40
2.5
50
17.4999992
51
107.4999992
0
ARC
8
0
10
273.5698365
20
-135.477657
40
2.5
50
197.4999992
51
287.4999992
0
ARC
8
0
10
288.8293077
20
-130.6663642
40
2.5
50
287.4999992
51
17.4999992
0
ARC
8
0
10
272.5911945
20
-79.1656489
40
2.5
50
17.4999992
51
107.4999992
0
ARC
8
0
10
257.7356282
20
-78.6069453
40
2.5
50
197.4999992
51
287.4999992
0
ARC
8
0
10
251.6138673
20
-75.8187481
40
2.5
50
17.4999992
51
107.4999992
0
ARC
8
0
10
236.7583011
20
-75.2600445
40
2.5
50
197.4999992
51
287.4999992
0
ARC
8
0
10
230.6365402
20
-72.4718472
40
2.5
50
17.4999992
51
107.4999992
0
ARC
8
0
10
215.377069
20
-77.28314
40
2.5
50
107.4999992
51
197.4999992
0
ARC
8
0
10
211.9616603
20
-83.0783952
40
2.5
50
287.4999992
51
17.4999992
0
ARC
8
0
10
179.2617501
20
-93.3886373
40
2.5
50
270
51
287.4999992
0
ARC
8
0
10
164.8332907
20
-93.3886373
40
2.5
50
252.5000008
51
270
0
ARC
8
0
10
132.1333805
20
-83.0783952
40
2.5
50
162.5000008
51
252.5000008
0
ARC
8
0
10
128.7179718
20
-77.28314
40
2.5
50
342.5000008
51
72.5000008
0
ARC
8
0
10
113.4585006
20
-72.4718472
40
2.5
50
72.5000008
51
162.5000008
0
ARC
8
0
10
107.3367397
20
-75.2600445
40
2.5
50
252.5000008
51
342.5000008
0
ARC
8
0
10
92.4811735
20
-75.8187481
40
2.5
50
72.5000008
51
162.5000008
0
ARC
8
0
10
86.3594126
20
-78.6069453
40
2.5
50
252.5000008
51
342.5000008
0
ARC
8
0
10
71.5038463
20
-79.1656489
40
2.5
50
72.5000008
51
162.5000008
0
ARC
8
0
10
55.2657331
20
-130.6663642
40
2.5
50
162.5000008
51
252.5000008
0
ENDSEC
0
EOF