0
SECTION
2
HEADER
9
$INSUNITS
70
4
0
ENDSEC
0
SECTION
2
TABLES
0
TABLE
2
LTYPE
0
LTYPE
72
65
70
64
2
CONTINUOUS
3
______
73
0
40
0
0
ENDTAB
0
TABLE
2
LAYER
0
ENDTAB
0
ENDSEC
0
SECTION
2
ENTITIES
0
LINE
8
0
10
50.8752535
20
-132.9519032
11
72.8107433
21
-139.8681366
0
LINE
8
0
10
72.8107433
20
-139.8681366
11
75.6674484
21
-130.8078256
0
LINE
8
0
10
50.8752535
20
-132.9519032
11
69.2183073
21
-74.7751693
0
LINE
8
0
10
87.3389294
20
-80.4885795
11
69.2183073
21
-74.7751693
0
LINE
8
0
10
75.6674484
20
-130.8078256
11
93.7880705
21
-136.5212358
0
LINE
8
0
10
93.7880705
20
-136.5212358
11
96.6447756
21
-127.4609247
0
LINE
8
0
10
108.3162565
20
-77.1416787
11
90.1956345
21
-71.4282685
0
LINE
8
0
10
90.1956345
20
-71.4282685
11
87.3389294
21
-80.4885795
0
LINE
8
0
10
96.6447756
20
-127.4609247
11
110.9505299
21
-131.9715117
0
LINE
8
0
10
130.2517463
20
-84.057912
11
133.1084514
21
-74.997601
0
LINE
8
0
10
133.1084514
20
-74.997601
11
111.1729616
21
-68.0813676
0
LINE
8
0
10
111.1729616
20
-68.0813676
11
108.3162565
21
-77.1416787
0
LINE
8
0
10
102.3804146
20
-159.1524448
11
110.9505299
21
-131.9715117
0
LINE
8
0
10
130.2517463
20
-84.057912
11
166.4929905
21
-95.4847324
0
LINE
8
0
10
102.3804146
20
-159.1524448
11
160.5571486
21
-177.4954986
0
LINE
8
0
10
271.2842975
20
-139.8681366
11
293.2197873
21
-132.9519032
0
LINE
8
0
10
274.8767335
20
-74.7751693
11
293.2197873
21
-132.9519032
0
LINE
8
0
10
268.4275924
20
-130.8078256
11
271.2842975
21
-139.8681366
0
LINE
8
0
10
274.8767335
20
-74.7751693
11
256.7561114
21
-80.4885795
0
LINE
8
0
10
250.3069703
20
-136.5212358
11
268.4275924
21
-130.8078256
0
LINE
8
0
10
247.4502652
20
-127.4609247
11
250.3069703
21
-136.5212358
0
LINE
8
0
10
256.7561114
20
-80.4885795
11
253.8994063
21
-71.4282685
0
LINE
8
0
10
253.8994063
20
-71.4282685
11
235.7787843
21
-77.1416787
0
LINE
8
0
10
233.1445109
20
-131.9715117
11
247.4502652
21
-127.4609247
0
LINE
8
0
10
235.7787843
20
-77.1416787
11
232.9220792
21
-68.0813676
0
LINE
8
0
10
232.9220792
20
-68.0813676
11
210.9865894
21
-74.997601
0
LINE
8
0
10
210.9865894
20
-74.997601
11
213.8432945
21
-84.057912
0
LINE
8
0
10
233.1445109
20
-131.9715117
11
241.7146262
21
-159.1524448
0
LINE
8
0
10
177.6020503
20
-95.4847324
11
213.8432945
21
-84.057912
0
LINE
8
0
10
183.5378922
20
-177.4954986
11
241.7146262
21
-159.1524448
0
LINE
8
0
10
166.4929905
20
-95.4847324
11
177.6020503
21
-95.4847324
0
LINE
8
0
10
160.5571486
20
-177.4954986
11
183.5378922
21
-177.4954986
0
ENDSEC
0
EOF