0
SECTION
2
HEADER
9
$INSUNITS
70
4
0
ENDSEC
0
SECTION
2
TABLES
0
TABLE
2
LTYPE
0
LTYPE
72
65
70
64
2
CONTINUOUS
3
______
73
0
40
0
0
ENDTAB
0
TABLE
2
LAYER
0
ENDTAB
0
ENDSEC
0
SECTION
2
ENTITIES
0
LINE
8
0
10
53.2595459
20
-133.7036677
11
70.4264509
21
-139.1163721
0
LINE
8
0
10
73.5625078
20
-137.4838442
11
74.9156839
21
-133.192118
0
LINE
8
0
10
51.627018
20
-130.5676108
11
68.4665428
21
-77.1594617
0
LINE
8
0
10
84.954637
20
-79.736815
11
71.6025997
21
-75.5269338
0
LINE
8
0
10
78.0517408
20
-131.5595901
11
91.4037781
21
-135.7694713
0
LINE
8
0
10
94.539835
20
-134.1369434
11
95.8930111
21
-129.8452171
0
LINE
8
0
10
105.9319641
20
-76.3899142
11
92.5799269
21
-72.180033
0
LINE
8
0
10
89.44387
20
-73.8125609
11
88.0906939
21
-78.1042871
0
LINE
8
0
10
99.029068
20
-128.2126892
11
108.5662375
21
-131.2197472
0
LINE
8
0
10
131.0035108
20
-81.6736196
11
132.3566869
21
-77.3818934
0
LINE
8
0
10
130.724159
20
-74.2458365
11
113.557254
21
-68.8331321
0
LINE
8
0
10
110.4211971
20
-70.46566
11
109.068021
21
-74.7573863
0
LINE
8
0
10
103.1321791
20
-156.7681524
11
110.1987654
21
-134.3558041
0
LINE
8
0
10
132.6360388
20
-84.8096765
11
166.1260129
21
-95.3690248
0
LINE
8
0
10
104.764707
20
-159.9042093
11
160.190171
21
-177.379791
0
LINE
8
0
10
273.6685899
20
-139.1163721
11
290.8354949
21
-133.7036677
0
LINE
8
0
10
275.628498
20
-77.1594617
11
292.4680228
21
-130.5676108
0
LINE
8
0
10
269.1793569
20
-133.192118
11
270.532533
21
-137.4838442
0
LINE
8
0
10
272.4924411
20
-75.5269338
11
259.1404038
21
-79.736815
0
LINE
8
0
10
252.6912627
20
-135.7694713
11
266.0433
21
-131.5595901
0
LINE
8
0
10
248.2020297
20
-129.8452171
11
249.5552058
21
-134.1369434
0
LINE
8
0
10
256.0043469
20
-78.1042871
11
254.6511708
21
-73.8125609
0
LINE
8
0
10
251.5151139
20
-72.180033
11
238.1630767
21
-76.3899142
0
LINE
8
0
10
235.5288033
20
-131.2197472
11
245.0659728
21
-128.2126892
0
LINE
8
0
10
235.0270198
20
-74.7573863
11
233.6738437
21
-70.46566
0
LINE
8
0
10
230.5377868
20
-68.8331321
11
213.3708818
21
-74.2458365
0
LINE
8
0
10
211.7383539
20
-77.3818934
11
213.09153
21
-81.6736196
0
LINE
8
0
10
233.8962754
20
-134.3558041
11
240.9628617
21
-156.7681524
0
LINE
8
0
10
177.9690279
20
-95.3690248
11
211.459002
21
-84.8096765
0
LINE
8
0
10
183.9048698
20
-177.379791
11
239.3303338
21
-159.9042093
0
LINE
8
0
10
166.8777774
20
-95.4847324
11
177.2172634
21
-95.4847324
0
LINE
8
0
10
160.9419355
20
-177.4954986
11
183.1531053
21
-177.4954986
0
ARC
8
0
10
71.1782154
20
-136.7320797
40
2.5
50
252.5000008
51
342.5000008
0
ARC
8
0
10
77.2999763
20
-133.9438825
40
2.5
50
72.5000008
51
162.5000008
0
ARC
8
0
10
92.1555426
20
-133.3851789
40
2.5
50
252.5000008
51
342.5000008
0
ARC
8
0
10
98.2773035
20
-130.5969816
40
2.5
50
72.5000008
51
162.5000008
0
ARC
8
0
10
107.814473
20
-133.6040396
40
2.5
50
342.5000008
51
72.5000008
0
ARC
8
0
10
105.5164715
20
-157.5199169
40
2.5
50
162.5000008
51
252.5000008
0
ARC
8
0
10
160.9419355
20
-174.9954986
40
2.5
50
252.5000008
51
270
0
ARC
8
0
10
183.1531053
20
-174.9954986
40
2.5
50
270
51
287.4999992
0
ARC
8
0
10
238.5785693
20
-157.5199169
40
2.5
50
287.4999992
51
17.4999992
0
ARC
8
0
10
236.2805678
20
-133.6040396
40
2.5
50
107.4999992
51
197.4999992
0
ARC
8
0
10
245.8177373
20
-130.5969816
40
2.5
50
17.4999992
51
107.4999992
0
ARC
8
0
10
251.9394982
20
-133.3851789
40
2.5
50
197.4999992
51
287.4999992
0
ARC
8
0
10
266.7950645
20
-133.9438825
40
2.5
50
17.4999992
51
107.4999992
0
ARC
8
0
10
272.9168254
20
-136.7320797
40
2.5
50
197.4999992
51
287.4999992
0
ARC
8
0
10
290.0837304
20
-131.3193753
40
2.5
50
287.4999992
51
17.4999992
0
ARC
8
0
10
273.2442056
20
-77.9112262
40
2.5
50
17.4999992
51
107.4999992
0
ARC
8
0
10
258.3886393
20
-77.3525226
40
2.5
50
197.4999992
51
287.4999992
0
ARC
8
0
10
252.2668784
20
-74.5643254
40
2.5
50
17.4999992
51
107.4999992
0
ARC
8
0
10
237.4113122
20
-74.0056218
40
2.5
50
197.4999992
51
287.4999992
0
ARC
8
0
10
231.2895513
20
-71.2174245
40
2.5
50
17.4999992
51
107.4999992
0
ARC
8
0
10
214.1226463
20
-76.6301289
40
2.5
50
107.4999992
51
197.4999992
0
ARC
8
0
10
210.7072376
20
-82.4253841
40
2.5
50
287.4999992
51
17.4999992
0
ARC
8
0
10
177.2172634
20
-92.9847324
40
2.5
50
270
51
287.4999992
0
ARC
8
0
10
166.8777774
20
-92.9847324
40
2.5
50
252.5000008
51
270
0
ARC
8
0
10
133.3878032
20
-82.4253841
40
2.5
50
162.5000008
51
252.5000008
0
ARC
8
0
10
129.9723945
20
-76.6301289
40
2.5
50
342.5000008
51
72.5000008
0
ARC
8
0
10
112.8054895
20
-71.2174245
40
2.5
50
72.5000008
51
162.5000008
0
ARC
8
0
10
106.6837286
20
-74.0056218
40
2.5
50
252.5000008
51
342.5000008
0
ARC
8
0
10
91.8281624
20
-74.5643254
40
2.5
50
72.5000008
51
162.5000008
0
ARC
8
0
10
85.7064015
20
-77.3525226
40
2.5
50
252.5000008
51
342.5000008
0
ARC
8
0
10
70.8508352
20
-77.9112262
40
2.5
50
72.5000008
51
162.5000008
0
ARC
8
0
10
54.0113104
20
-131.3193753
40
2.5
50
162.5000008
51
252.5000008
0
ENDSEC
0
EOF