0
SECTION
2
HEADER
9
$INSUNITS
70
4
0
ENDSEC
0
SECTION
2
TABLES
0
TABLE
2
LTYPE
0
LTYPE
72
65
70
64
2
CONTINUOUS
3
______
73
0
40
0
0
ENDTAB
0
TABLE
2
LAYER
0
ENDTAB
0
ENDSEC
0
SECTION
2
ENTITIES
0
LINE
8
0
10
50.8752535
20
-132.9519032
11
72.8107433
21
-139.8681366
0
LINE
8
0
10
72.8107433
20
-139.8681366
11
75.6674484
21
-130.8078256
0
LINE
8
0
10
50.8752535
20
-132.9519032
11
69.2183073
21
-74.7751693
0
LINE
8
0
10
87.3389294
20
-80.4885795
11
69.2183073
21
-74.7751693
0
LINE
8
0
10
75.6674484
20
-130.8078256
11
93.7880705
21
-136.5212358
0
LINE
8
0
10
93.7880705
20
-136.5212358
11
96.6447756
21
-127.4609247
0
LINE
8
0
10
108.3162565
20
-77.1416787
11
90.1956345
21
-71.4282685
0
LINE
8
0
10
90.1956345
20
-71.4282685
11
87.3389294
21
-80.4885795
0
LINE
8
0
10
96.6447756
20
-127.4609247
11
110.9505299
21
-131.9715117
0
LINE
8
0
10
130.2517463
20
-84.057912
11
133.1084514
21
-74.997601
0
LINE
8
0
10
133.1084514
20
-74.997601
11
111.1729616
21
-68.0813676
0
LINE
8
0
10
111.1729616
20
-68.0813676
11
108.3162565
21
-77.1416787
0
LINE
8
0
10
102.3804146
20
-159.1524448
11
110.9505299
21
-131.9715117
0
LINE
8
0
10
130.2517463
20
-84.057912
11
166.4929905
21
-95.4847324
0
LINE
8
0
10
102.3804146
20
-159.1524448
11
160.5571486
21
-177.4954986
0
LINE
8
0
10
271.2842975
20
-139.8681366
11
293.2197873
21
-132.9519032
0
LINE
8
0
10
274.8767335
20
-74.7751693
11
293.2197873
21
-132.9519032
0
LINE
8
0
10
268.4275924
20
-130.8078256
11
271.2842975
21
-139.8681366
0
LINE
8
0
10
274.8767335
20
-74.7751693
11
256.7561114
21
-80.4885795
0
LINE
8
0
10
250.3069703
20
-136.5212358
11
268.4275924
21
-130.8078256
0
LINE
8
0
10
247.4502652
20
-127.4609247
11
250.3069703
21
-136.5212358
0
LINE
8
0
10
256.7561114
20
-80.4885795
11
253.8994063
21
-71.4282685
0
LINE
8
0
10
253.8994063
20
-71.4282685
11
235.7787843
21
-77.1416787
0
LINE
8
0
10
233.1445109
20
-131.9715117
11
247.4502652
21
-127.4609247
0
LINE
8
0
10
235.7787843
20
-77.1416787
11
232.9220792
21
-68.0813676
0
LINE
8
0
10
232.9220792
20
-68.0813676
11
210.9865894
21
-74.997601
0
LINE
8
0
10
210.9865894
20
-74.997601
11
213.8432945
21
-84.057912
0
LINE
8
0
10
233.1445109
20
-131.9715117
11
241.7146262
21
-159.1524448
0
LINE
8
0
10
177.6020503
20
-95.4847324
11
213.8432945
21
-84.057912
0
LINE
8
0
10
183.5378922
20
-177.4954986
11
241.7146262
21
-159.1524448
0
LINE
8
0
10
166.4929905
20
-95.4847324
11
177.6020503
21
-95.4847324
0
LINE
8
0
10
160.5571486
20
-177.4954986
11
183.5378922
21
-177.4954986
0
LINE
8
0
10
53.384099
20
-131.6458809
11
71.504721
21
-137.3592911
0
LINE
8
0
10
71.504721
20
-137.3592911
11
74.3614262
21
-128.2989801
0
LINE
8
0
10
53.384099
20
-131.6458809
11
64.8109194
21
-95.4046369
0
LINE
8
0
10
88.6449516
20
-82.997425
11
70.5243296
21
-77.2840148
0
LINE
8
0
10
70.5243296
20
-77.2840148
11
64.8109194
21
-95.4046368
0
LINE
8
0
10
74.3614262
20
-128.2989801
11
92.4820482
21
-134.0123903
0
LINE
8
0
10
92.4820482
20
-134.0123903
11
95.3387533
21
-124.9520792
0
LINE
8
0
10
109.6222788
20
-79.6505242
11
91.5016568
21
-73.937114
0
LINE
8
0
10
91.5016568
20
-73.937114
11
88.6449516
21
-82.997425
0
LINE
8
0
10
95.3387533
20
-124.9520792
11
113.4593753
21
-130.6654894
0
LINE
8
0
10
127.7429009
20
-85.3639343
11
130.5996059
21
-76.3036233
0
LINE
8
0
10
130.5996059
20
-76.3036233
11
112.4789839
21
-70.5902131
0
LINE
8
0
10
112.4789839
20
-70.5902131
11
109.6222788
21
-79.6505242
0
LINE
8
0
10
104.8892601
20
-157.8464225
11
113.4593753
21
-130.6654894
0
LINE
8
0
10
145.8635229
20
-91.0773445
11
127.7429009
21
-85.3639343
0
LINE
8
0
10
146.8439144
20
-151.1526209
11
152.5573246
21
-133.0319989
0
LINE
8
0
10
152.5573246
20
-133.0319988
11
158.2707348
21
-114.9113768
0
LINE
8
0
10
158.2707348
20
-114.9113767
11
163.984145
21
-96.7907547
0
LINE
8
0
10
163.984145
20
-96.7907547
11
145.863523
21
-91.0773445
0
LINE
8
0
10
104.8892601
20
-157.8464225
11
123.0098821
21
-163.5598327
0
LINE
8
0
10
123.0098822
20
-163.5598327
11
141.1305042
21
-169.2732429
0
LINE
8
0
10
141.1305043
20
-169.2732429
11
159.2511263
21
-174.9866531
0
LINE
8
0
10
159.2511263
20
-174.9866531
11
164.9645365
21
-156.8660311
0
LINE
8
0
10
164.9645365
20
-156.8660311
11
146.8439145
21
-151.1526209
0
LINE
8
0
10
272.5903198
20
-137.3592911
11
290.7109418
21
-131.6458809
0
LINE
8
0
10
279.2841214
20
-95.4046369
11
290.7109418
21
-131.6458809
0
LINE
8
0
10
269.7336146
20
-128.2989801
11
272.5903198
21
-137.3592911
0
LINE
8
0
10
279.2841214
20
-95.4046368
11
273.5707112
21
-77.2840148
0
LINE
8
0
10
273.5707112
20
-77.2840148
11
255.4500892
21
-82.997425
0
LINE
8
0
10
251.6129926
20
-134.0123903
11
269.7336146
21
-128.2989801
0
LINE
8
0
10
248.7562875
20
-124.9520792
11
251.6129926
21
-134.0123903
0
LINE
8
0
10
255.4500892
20
-82.997425
11
252.593384
21
-73.937114
0
LINE
8
0
10
252.593384
20
-73.937114
11
234.472762
21
-79.6505242
0
LINE
8
0
10
230.6356655
20
-130.6654894
11
248.7562875
21
-124.9520792
0
LINE
8
0
10
234.472762
20
-79.6505242
11
231.6160569
21
-70.5902131
0
LINE
8
0
10
231.6160569
20
-70.5902131
11
213.4954349
21
-76.3036233
0
LINE
8
0
10
213.4954349
20
-76.3036233
11
216.3521399
21
-85.3639343
0
LINE
8
0
10
230.6356655
20
-130.6654894
11
239.2057807
21
-157.8464225
0
LINE
8
0
10
216.3521399
20
-85.3639343
11
198.2315179
21
-91.0773445
0
LINE
8
0
10
191.5377162
20
-133.0319989
11
197.2511264
21
-151.1526209
0
LINE
8
0
10
185.824306
20
-114.9113768
11
191.5377162
21
-133.0319988
0
LINE
8
0
10
198.2315178
20
-91.0773445
11
180.1108958
21
-96.7907547
0
LINE
8
0
10
180.1108958
20
-96.7907547
11
185.824306
21
-114.9113767
0
LINE
8
0
10
221.0851587
20
-163.5598327
11
239.2057807
21
-157.8464225
0
LINE
8
0
10
202.9645366
20
-169.2732429
11
221.0851586
21
-163.5598327
0
LINE
8
0
10
184.8439145
20
-174.9866531
11
202.9645365
21
-169.2732429
0
LINE
8
0
10
197.2511263
20
-151.1526209
11
179.1305043
21
-156.8660311
0
LINE
8
0
10
179.1305043
20
-156.8660311
11
184.8439145
21
-174.9866531
0
ENDSEC
0
EOF